<svg xmlns="http://www.w3.org/2000/svg" xml:space="preserve" style="fill-rule:evenodd;clip-rule:evenodd;stroke-linejoin:round;stroke-miterlimit:2" viewBox="0 0 220 220"><path d="M0 0h2560v900H0z" style="fill:none" transform="translate(-1751 -247)"/><path d="M0 1014.12c-55-31.7-85.43-52.5-104.34-72.08l-513.15-531.2c-10.04-10.4-15.3-24.68-13.67-39.04.56-4.92.88-10.43.88-16.6 0-17.24-2.72-30.34-6.14-40.07a15 15 0 0 1-.73-7.18l67.22-422.55c-8.7 1.56-20.67 1.74-31.1.9l-66.11 415.57q-.39 2.31-1.43 4.4c-4.94 10.04-9.83 25.78-9.83 48.92 0 24.7 5.14 38.82 9.98 46.7l-.12.11.52.54c4.14 6.47 7.95 8.42 7.95 8.42h.2l534.6 553.43a186 186 0 0 1 23.22 29.82c-.01.53-.04 1.06.06 1.57 2.3 11.46-1.15 14.9-5.73 19.48s1.15 11.46 9.17 11.46 25.56 5.07 35.52 20.63c18.34 28.65 30.94 38.96 43.55 50.42s44.7 29.8 46.98 25.21c2.3-4.58-10.31-16.04-21.77-29.8-9.34-11.2-16.04-24.06-8.02-21.76s55 46.98 61.88 51.56 21.77 5.73 16.04-4.58S22.05 1026.83 0 1014.12" style="fill:rgb(229,94,33);fill-rule:nonzero" transform="translate(150.04 117.11)scale(.07807)"/><path d="M0 1250.59c-24.07-2.3-79.07-14.9-96.26-25.21-11.06-6.64-23.96-14.27-33.32-25.25l.24-.06c-.46-1.7-1.18-3.8-2.05-6.33-3.48-10.13-9.3-27.1-9.3-52.26v-677.5c0-10.12 1.41-20.28 4.91-29.78 3.1-8.4 5.52-20.38 5.52-37.35s-2.64-29.96-5.99-39.65a29 29 0 0 1-.85-15.33l78.48-385.94c-10.66.12-21.93-.54-30.84-1.77l-79.72 392.03q-.5 2.43-1.4 4.76a99 99 0 0 0-3.56 11.93c-2.47 8.93-4.25 20.1-4.25 33.97 0 16.86 2.4 28.81 5.47 37.2a31 31 0 0 1 1.9 10.5v698.34a160 160 0 0 1-4.14 35.37l-.17.13c.04.18-.01.45-.01.67q-.46 1.95-.91 3.68c-3.86 10.43-18.38 33.21-17.42 38.05.22 1.08.88 1.59 1.8 1.7 10.13 1.32 19.7 5.13 25.28 13.67 12.8 19.56 33.43 47.16 50.85 52.24 27.5 8.03 16.04-6.87 13.75-11.46-2.3-4.58 91.68-6.87 121.47-6.87 29.8 0 36.67-1.15 34.38-6.88-2.3-5.73-29.8-10.31-53.86-12.6" style="fill:rgb(229,94,33);fill-rule:nonzero" transform="translate(98.97 113.73)scale(.07807)"/><path d="M0 44.02A546 546 0 0 0 14.44-9.17a677 677 0 0 1-85.92 29.7c2.76 11.04 5.54 20.84 7.3 23.5 4.59 6.87 57.3 9.16 64.18 0" style="fill:rgb(241,82,107);fill-rule:nonzero" transform="translate(106.52 103.52)scale(.07807)"/><path d="M0 311.1c111.98-138.77 290.43-159.81 292.22-160.01a1.73 1.73 0 0 1 1.91 1.72v1.9c0 .87-.67 1.6-1.54 1.7-.4.05-44.28 6.32-102.15 29.94-52.03 21.22-125.9 61.22-182.4 131.23C-49.22 388.54-59.32 457.86-60 494.41c10.4-36.26 33.93-100.09 78.29-138.8 7.67-6.7 12.16-4.56 13.73-3.34 2.88 2.24 3.4 6.73 1.28 10.9-6.45 12.68-17.8 36.95-22.24 58.78 7.36-8.8 15.98-16.89 23.81-22.32 6.44-4.47 9.62-2.78 10.94-1.38 2.4 2.58 1.83 7.67-.29 10.35-6.95 8.78-20.33 27.88-31.84 57.03C-.14 500.65-7.1 539.22-6.97 580.29c11.23-44.67 29.32-83.31 53.79-114.89 4.47-5.77 8.54-4.38 9.68-3.82 3.05 1.52 4.48 5.58 3.4 9.67-7.11 26.74-19.26 97.76 19.83 183.37-8.7-45.98-11.2-115.05 24.04-187.88 1.03-2.02 3.57-5.1 6.64-4.03 2.97 1.05 3.39 4.73 3.17 6.74 0 0-.33 4.32-.43 10.74-.02 1.07.25 1.64.4 1.85.25-.17.78-.73 1.3-2.08 12.59-32.07 31.24-58.49 55.44-78.52 3.87-3.2 7.84-3.77 10.62-1.52 2.9 2.35 3.37 6.94 1.15 11.17-14.7 28.08-47.26 103.21-33.48 196.8 6.53-32.96 15.58-63.6 26.89-91.12 17.59-42.77 40.23-76.84 67.3-101.28 4.95-4.46 8.68-3.06 10.05-2.24 2.87 1.7 4.4 5.72 3.54 9.35-6.2 26.26-25.17 116.25-10 176.2 7.53-18.38 24.41-60.07 27.18-71.13.33-1.08 2.04-6.07 5.6-5.69 3.48.37 4.5 4.12 4.55 6.34l2.23 20.1c11.22-18.08 41.63-69.26 46.72-78 3.23-5.55 6.43-5.7 8.05-5.29a781 781 0 0 1 4.9 31.16c12.34-8.1 33.87-23.2 43.77-35.78 1.02-1.29 4.11-5.22 8.29-3.24 3.16 1.5 3.57 5.65 3.31 7.87l-1.63 13.07c15.31-12.54 51.74-43.13 74.48-68.71a1.7 1.7 0 0 1 2.67.1l1.43 1.9c.49.66.45 1.57-.1 2.19-27.1 30.48-68.14 68.71-79.18 78.1-3.2 2.72-5.77 3.56-7.87 2.58-3.02-1.4-3.06-5.89-3.06-6.4l.01-.2 1.5-11.92c-13.52 12.99-32.96 26.56-42.05 31.75q-5.28 3.02-8.6 1.1c-3.25-1.9-3.32-6.46-3.31-6.98v-15c-11.28 19.51-24.47 40.85-34.15 56.51-5.1 8.26-9.13 14.78-11.55 18.88-2.5 4.23-4.94 6.1-7.46 5.7-3.77-.58-5.08-6.13-5.1-6.19q-.6-2.72-.81-6.8c-.04-.77-.3-1.11-.4-1.15a2355 2355 0 0 1-22.05 54.4c-1.2 2.93-5.12 5.75-8.8 5.08s-6.62-4.7-7.23-6.77c-16.94-57.92-1.2-143 6.68-178.04-20.29 20.45-67.65 78.67-87.49 191.24-1.32 7.5-5.88 8.33-7.78 8.33h-.03c-4.09 0-8.16-3.4-8.9-7.43-16.4-89.61 9.26-164.31 26.68-201.88-33.34 33.1-46.03 73.24-49.96 89.1-.8 3.23-4.53 5.92-7.84 5.63a806 806 0 0 0-5.37-11.54c-.2-2.46-.4-5-.57-7.44-28.72 75.66-17.8 144.3-8.7 178.55 2.24 8.4-.72 10.94-2.68 11.72q-.96.37-2.05.37c-3.48 0-7.67-2.78-9.84-6.85-32.09-60.06-38.36-113.93-37.97-148.54.18-15.77 1.66-31.1 4.42-45.6C25.52 515.05 10.43 551.4.17 595.12c-1.42 6.08-5.61 10.17-9.96 9.74-1.62-.16-6.96-1.5-7.28-12-2.5-81.6 21.8-138.2 38.97-167.65a177 177 0 0 0-9.39 11.68c-2.05 2.8-6.45 4.12-9.6 2.9-1.33-.51-4.35-2.28-3.8-7.6 2.5-23.83 13.99-50.79 19.6-62.83-43.89 43.2-65.33 113.85-72.55 142.43-1.6 6.32-5.28 8.22-8.19 7.9-3.93-.45-8-5.1-8.23-14.5-.93-38.82 6.95-115.66 70.26-194.1m799.68-774.44c.75.17 19.61-1.2 26.94 10.3a133 133 0 0 0 8.9 14.33c4.1 5.9 11.31 8.4 18.46 7.54 2.71-.33 5.55-.08 8.03 1.42 6.58 3.97 10.24 17.04 10.63 18.52l.55 2.03-1.56 1.4a17.4 17.4 0 0 1-11.02 4.08c-2.5 0-5.32-.58-8.35-2.17-5.57-2.93-8.21-7.75-9.46-11.73-1-3.2-2.93-6.04-5.42-8.3-5.44-4.94-9.05-10.94-12.8-17.21q-1.79-3.07-3.77-6.21c-5.79-9.07-21.4-12.64-21.55-12.67zm-950.7 1151.18c-41.55-12.67-64.33-30.56-65-30.82l1.24-2.07c1.7.66 167.6 62.8 332.42 68.52 1.69.05 3.9-.91 4.37-4.03 1.3-8.67 2.7-15.07 2.7-15.07l.9-.09c2.06 10.37 10.75 52.91 14.89 59.13 4.72 7.09 59.05 9.45 66.14 0 6.27-8.36 15.29-57.25 17.3-68.5l.84-.07s1.25 4.58 2.17 15.62c.08.95.73 1.76 1.66 1.57 124-25.89 252.57-96.99 348.95-193.64a634 634 0 0 0 19.8-20.69l1.4 1.46a320 320 0 0 1-28.1 37.36c-17.5 20.05-37.7 38.57-59.52 55.15-3.76 2.87-.88 8.77 3.7 7.56 72.76-19.18 109-17.27 151.73-12.73 16.42 1.75 33.39 3.55 52.6 4.05 85.73 2.18 193.69-50.34 216.53-205.62 24.94-169.64-80.8-301.33-127.44-350.07a1206 1206 0 0 0-24.38-24.5c-52.01-51.38-123.25-121.74-123.25-209.37 0-100.66 43-157.71 79.82-175.99-.1 0 22.17-16.27 47.78 3.67 23.72 18.46 67.83 47.71 81.77 55.9 8.17 4.8 21.83 16.31 32.08 25.33 2.94 2.6 7.54.2 7.06-3.7q-.58-4.79-1.75-10.8c-3.23-16.43-28.19-64.24-38.86-82.57-1.77-3.03-2.8-9.75 3.32-13.6a48 48 0 0 0 5.24-3.66c3.53-2.95 8.54-3.6 11.26-1.29 25.2 21.46 55 20.29 67.21 18.64a4.15 4.15 0 0 0 3.59-3.86c.7-10.36 1.37-32.8-4.16-50.6-8.47-27.25-53.63-102.6-124.16-104.35-41.05-1-77.67 9.32-109.12 30.73-47.42 32.29-173.38 118.05-171.08 295.48 2.16 166.22 105.19 261.9 160.54 313.3 10.43 9.7 18.67 17.35 24.25 23.67 59.88 67.87 90.24 135.72 90.24 201.67 0 44.82-19.8 80.51-52.97 95.48a69 69 0 0 1-28.45 6.3c-14.41 0-28.12-4.88-38.9-14.4-12.54-11.05-25.67-39.47-40.88-72.38-12.13-26.23-25.8-55.8-41.35-81.01-1.83-2.97-6.4-.75-5.19 2.52 8.12 22.02 2.23 38.3 2.23 38.67l-.78-.38c0-.76-12.6-85.19-87.63-125.35-88.12-47.17-347.55-61.49-555.18 132.44C-232.08 495.73-385.6 694.71-448.3 850.78c-1.5 3.7 2.55 7.22 6.05 5.29 42.32-23.33 146.57-83.4 189.29-131.45l9.87-11.1-3.97 14.31c-.31 1.1-5.05 18.01-11.5 33.77-1.53 3.73 2.45 7.32 5.97 5.36 25.59-14.24 66.98-37.87 103.36-71.83 2.44-2.27 1.4-6.33-1.78-7.3" style="fill:rgb(241,82,107);fill-rule:nonzero" transform="translate(80.4 49.36)scale(.07807)"/><path d="M0 50.6C-5.93 31.5-50.4-33.97-64.16-54a7.5 7.5 0 0 0-7.27-3.22c-13 1.79-41.98 2.8-68.06-17.02a7.4 7.4 0 0 0-9.15.22 7.66 7.66 0 0 0-2.24 9.97C-139-43.08-116.53.6-113.31 17c2.79 14.19 2.92 23.57 2.74 28.02a7 7 0 0 0 .77 3.55c8.73 17.82 16.82 50.08 22.75 78.25 6.24-.2 17.29-1.33 25-6.44 10.06-6.67 17.98-43.35 13.73-68.72-6.23-10.37-13.33-18.2-18.15-23.5l-1.34-1.49c-5.06-5.6-10.64-13.1-17.1-18.5-6.87-5.74-12.17-10.7-14.9-14.51-3.78-5.25-13.47-15.14-17.2-18.72l.38-.51c.6.37 14.7 9.13 20.03 16.56 2.23 3.1 8.13 8.03 14.37 13.25C-75.6 9.8-68.07 16.1-62.7 22.05l1.32 1.47c9.75 10.73 28.28 31.24 32.3 62.09 6.9 1.26 23.55 3.86 31.96 1.56C3.91 71.35 2.58 58.88 0 50.6" style="fill:rgb(229,94,33);fill-rule:nonzero" transform="translate(160.6 24.15)scale(.07807)"/><path d="M0-56.02c-7.7 5.1-18.75 6.23-25 6.44 5.82 27.65 9.55 51.36 9.73 53.56.24 2.83-.5 11.23-1.65 23.71-.7 7.57-1.42 15.4-1.4 17.77.04 4.27 5.9 19.47 8.03 23.26.58-.05 1.8-.29 3.83-1.08C9.4 48.46 23.53-26.76 26.7-72.44c1.5-21.64-5.01-39.05-12.96-52.3C17.99-99.38 10.07-62.69 0-56.02" style="fill-rule:nonzero" transform="translate(155.76 37.92)scale(.07807)"/><path d="M0-151.9c.77 5.9 1.06 12.15.6 18.83C-1.7-100-12.2-31.67-27.45 0c.87-.56 1.7-1.08 2.65-1.72 13.02-8.78 17.7-19.75 37.7-70.1 12.25-30.84 17.72-57.61 19.07-78.52-8.41 2.3-25.06-.3-31.97-1.56" style="fill-rule:nonzero" transform="translate(158.34 42.69)scale(.07807)"/><path d="M0 10.99a10.3 10.3 0 0 0 9.81.21C8.26 6.5 5.55.68 2.97-.87.7-2.25-3.77-.83-6.74.58-6.31 3.38-4.87 8.43 0 11" style="fill:rgb(94,158,163);fill-rule:nonzero" transform="translate(147.18 16.34)scale(.07807)"/></svg>