<?xml version="1.0" encoding="UTF-8" standalone="no"?>
<!DOCTYPE svg PUBLIC "-//W3C//DTD SVG 1.1//EN" "http://www.w3.org/Graphics/SVG/1.1/DTD/svg11.dtd">
<svg width="100%" height="100%" viewBox="0 0 220 220" version="1.1" xmlns="http://www.w3.org/2000/svg" xmlns:xlink="http://www.w3.org/1999/xlink" xml:space="preserve" xmlns:serif="http://www.serif.com/" style="fill-rule:evenodd;clip-rule:evenodd;stroke-linejoin:round;stroke-miterlimit:2;">
    <g transform="matrix(1,0,0,1,-1751,-247)">
        <rect id="Artboard1" x="0" y="0" width="2560" height="900" style="fill:none;"/>
        <g id="Artboard11" serif:id="Artboard1">
            <g transform="matrix(1,0,0,1,569.25204,220.416433)">
                <g transform="matrix(0.078069,0,0,0.078069,1290.042657,128.194551)">
                    <g transform="matrix(1,0,0,1,-2000,-2000)">
                        <g id="BORDER-FILL" serif:id="BORDER FILL">
                        </g>
                        <g id="FLAMINGO-LEGS" serif:id="FLAMINGO LEGS">
                            <g transform="matrix(1,0,0,1,2534.7178,2198.592)">
                                <path d="M0,1014.118C-55.006,982.414 -85.426,961.628 -104.339,942.042L-617.491,410.835C-627.531,400.441 -632.799,386.156 -631.16,371.799C-630.599,366.884 -630.275,361.373 -630.275,355.194C-630.275,337.962 -632.999,324.855 -636.423,315.126C-637.235,312.819 -637.535,310.364 -637.151,307.95L-569.931,-114.597C-578.636,-113.038 -590.6,-112.857 -601.031,-113.698L-667.14,301.865C-667.386,303.415 -667.88,304.869 -668.573,306.278C-673.506,316.306 -678.405,332.045 -678.405,355.194C-678.405,379.89 -673.258,394.01 -668.417,401.887L-668.536,402.001L-668.016,402.54C-663.875,409.011 -660.069,410.965 -660.069,410.965L-659.876,410.965L-125.267,964.388C-115.17,974.841 -107.45,985.629 -102.048,994.209C-102.064,994.739 -102.092,995.271 -101.99,995.784C-99.698,1007.243 -103.136,1010.68 -107.72,1015.264C-112.304,1019.847 -106.573,1026.724 -98.552,1026.724C-90.53,1026.724 -72.988,1031.788 -63.027,1047.35C-44.692,1076.001 -32.086,1086.313 -19.48,1097.772C-6.875,1109.233 25.211,1127.569 27.503,1122.983C29.795,1118.4 17.189,1106.941 5.729,1093.189C-3.607,1081.984 -10.313,1069.124 -2.291,1071.416C5.729,1073.709 52.714,1118.4 59.59,1122.983C66.466,1127.569 81.363,1128.715 75.634,1118.4C69.903,1108.087 22.045,1026.826 0,1014.118" style="fill:rgb(229,94,33);fill-rule:nonzero;"/>
                            </g>
                            <g transform="matrix(1,0,0,1,1880.5688,2155.2167)">
                                <path d="M0,1250.587C-24.065,1248.296 -79.071,1235.69 -96.26,1225.376C-107.319,1218.739 -120.221,1211.108 -129.582,1200.134L-129.345,1200.069C-129.803,1198.373 -130.523,1196.273 -131.388,1193.742C-134.868,1183.607 -140.69,1166.639 -140.69,1141.48L-140.69,463.987C-140.69,453.856 -139.28,443.705 -135.778,434.199C-132.687,425.806 -130.257,413.822 -130.257,396.851C-130.257,379.873 -132.896,366.886 -136.248,357.203C-137.951,352.284 -138.138,346.967 -137.101,341.867L-58.617,-44.071C-69.283,-43.948 -80.551,-44.61 -89.458,-45.839L-169.177,346.191C-169.508,347.823 -169.994,349.391 -170.576,350.95C-171.859,354.394 -173.077,358.362 -174.14,362.882C-176.61,371.814 -178.387,382.985 -178.387,396.851C-178.387,413.71 -175.985,425.661 -172.922,434.056C-171.689,437.433 -171.011,440.954 -171.011,444.548L-171.011,1142.893C-171.011,1156.63 -173.04,1169.015 -175.165,1178.255C-175.222,1178.303 -175.331,1178.392 -175.331,1178.392C-175.295,1178.568 -175.341,1178.838 -175.345,1179.06C-175.649,1180.353 -175.952,1181.589 -176.252,1182.743C-180.107,1193.169 -194.634,1215.952 -193.667,1220.793C-193.452,1221.866 -192.793,1222.377 -191.866,1222.497C-181.741,1223.807 -172.175,1227.615 -166.587,1236.158C-153.796,1255.72 -133.16,1283.323 -115.741,1288.402C-88.239,1296.426 -99.698,1281.528 -101.99,1276.944C-104.282,1272.36 -10.313,1270.069 19.481,1270.069C49.276,1270.069 56.151,1268.921 53.859,1263.191C51.568,1257.463 24.065,1252.879 0,1250.587" style="fill:rgb(229,94,33);fill-rule:nonzero;"/>
                            </g>
                        </g>
                        <g id="FLAMINGO-BODY" serif:id="FLAMINGO BODY">
                            <g transform="matrix(1,0,0,1,1977.2109,2024.4546)">
                                <path d="M0,44.021C2.212,41.07 4.66,33.594 6.965,24.832C9.999,13.303 12.78,-0.441 14.443,-9.167C-14.079,2.827 -42.89,12.823 -71.483,20.529C-68.725,31.568 -65.94,41.372 -64.173,44.021C-59.59,50.897 -6.875,53.188 0,44.021" style="fill:rgb(241,82,107);fill-rule:nonzero;"/>
                            </g>
                            <g transform="matrix(1,0,0,1,1642.5991,1330.6751)">
                                <path d="M0,311.091C111.978,172.332 290.434,151.287 292.223,151.09C292.709,151.036 293.198,151.195 293.563,151.522C293.928,151.851 294.136,152.32 294.134,152.81L294.126,154.707C294.123,155.584 293.461,156.318 292.59,156.413C292.189,156.461 248.311,162.732 190.435,186.348C138.415,207.575 64.543,247.573 8.045,317.584C-49.224,388.544 -59.318,457.858 -59.997,494.409C-49.602,458.151 -26.074,394.325 18.287,355.614C25.961,348.918 30.446,351.045 32.019,352.271C34.898,354.514 35.423,358.997 33.298,363.173C26.846,375.847 15.501,400.117 11.06,421.949C18.419,413.15 27.04,405.063 34.87,399.632C41.313,395.162 44.486,396.851 45.805,398.255C48.219,400.826 47.637,405.924 45.524,408.596C38.574,417.383 25.194,436.478 13.685,465.626C-0.148,500.654 -7.096,539.217 -6.978,580.29C4.25,535.623 22.34,496.98 46.81,465.405C51.285,459.631 55.35,461.021 56.489,461.584C59.543,463.096 60.971,467.163 59.884,471.254C52.778,497.985 40.628,569.013 79.716,654.62C71.023,608.642 68.527,539.569 103.763,466.744C104.794,464.72 107.332,461.634 110.402,462.715C113.367,463.756 113.786,467.435 113.566,469.446L113.566,469.445C113.566,469.445 113.241,473.769 113.139,480.193C113.122,481.261 113.386,481.83 113.535,482.036C113.787,481.869 114.317,481.309 114.847,479.96C127.429,447.891 146.081,421.472 170.284,401.437C174.149,398.237 178.117,397.672 180.896,399.924C183.792,402.27 184.267,406.861 182.052,411.089C167.342,439.169 134.794,514.305 148.57,607.893C155.101,574.934 164.146,544.286 175.46,516.769C193.046,474.002 215.69,439.928 242.764,415.493C247.712,411.028 251.437,412.435 252.811,413.246C255.684,414.947 257.204,418.966 256.347,422.596C250.144,448.859 231.177,538.847 246.351,598.803C253.884,580.416 270.762,538.733 273.529,527.675C273.861,526.585 275.568,521.596 279.126,521.983C282.611,522.351 283.623,526.097 283.677,528.323L285.909,548.411C297.131,530.341 327.535,479.16 332.628,470.417C335.857,464.874 339.056,464.725 340.676,465.131C343.456,465.826 345.424,468.997 345.574,473.021C345.767,478.181 345.619,492.96 345.583,496.289C357.918,488.183 379.445,473.099 389.352,460.514C390.369,459.221 393.463,455.291 397.637,457.267C400.798,458.765 401.208,462.92 400.952,465.138L399.318,478.206C414.635,465.673 451.061,435.082 473.803,409.5C474.146,409.114 474.645,408.9 475.161,408.924C475.676,408.944 476.157,409.195 476.467,409.608L477.896,411.503C478.39,412.158 478.352,413.071 477.808,413.685C450.707,444.172 409.656,482.403 398.625,491.789C395.428,494.509 392.849,495.354 390.746,494.371C387.734,492.964 387.685,488.484 387.69,487.977C387.691,487.911 387.695,487.844 387.703,487.778L389.196,475.849C375.681,488.839 356.235,502.411 347.155,507.6C343.64,509.61 340.744,509.979 338.547,508.695C335.302,506.799 335.234,502.238 335.237,501.723L335.237,486.716C323.96,506.232 310.772,527.57 301.094,543.23C295.99,551.488 291.958,558.011 289.536,562.108C287.034,566.337 284.595,568.202 282.079,567.811C278.313,567.225 276.999,561.678 276.986,561.622C276.573,559.823 276.297,557.534 276.167,554.816C276.129,554.052 275.865,553.706 275.773,553.667C275.726,553.679 275.361,553.889 275.058,554.687C268.073,573.04 258.693,596.008 253.724,608.066C252.511,611.005 248.599,613.815 244.922,613.154C241.233,612.489 238.298,608.451 237.691,606.377C220.753,548.461 236.498,463.385 244.365,428.338C224.084,448.794 176.723,507.006 156.885,619.579C155.563,627.082 150.998,627.907 149.096,627.914L149.071,627.914C144.983,627.914 140.913,624.516 140.174,620.482C123.762,530.867 149.432,456.166 166.85,418.597C133.509,451.703 120.822,491.836 116.891,507.701C116.091,510.929 112.362,513.621 109.049,513.333C106.22,513.094 104.378,510.863 104.122,507.368L104.122,507.369C103.984,505.512 103.833,503.645 103.682,501.788C103.482,499.329 103.277,496.798 103.113,494.352C74.391,570.014 85.319,638.652 94.419,672.896C96.651,681.294 93.694,683.843 91.734,684.615C91.097,684.866 90.404,684.985 89.683,684.985C86.197,684.986 82.009,682.213 79.836,678.144C47.752,618.084 41.48,564.213 41.869,529.596C42.045,513.827 43.532,498.495 46.291,483.998C25.522,515.046 10.432,551.413 0.175,595.118C-1.252,601.199 -5.444,605.294 -9.788,604.861C-11.414,604.697 -16.745,603.351 -17.067,592.864C-19.573,511.266 4.735,454.651 21.896,425.211C18.053,429.584 14.806,433.78 12.513,436.893C10.459,439.683 6.057,441.009 2.902,439.789C1.58,439.277 -1.435,437.513 -0.881,432.199C1.608,408.361 13.095,381.405 18.712,369.363C-25.175,412.557 -46.618,483.215 -53.839,511.791C-55.436,518.11 -59.12,520.013 -62.028,519.685C-65.962,519.243 -70.033,514.591 -70.259,505.191C-71.192,466.371 -63.307,389.532 0,311.091M799.678,-463.351C800.432,-463.183 819.29,-464.541 826.617,-453.056C827.99,-450.899 829.265,-448.762 830.51,-446.669C832.183,-443.859 833.792,-441.197 835.514,-438.723C839.626,-432.816 846.832,-430.315 853.975,-431.185C856.69,-431.515 859.534,-431.256 862.006,-429.764C868.592,-425.794 872.25,-412.72 872.644,-411.242L873.186,-409.213L871.633,-407.803C871.384,-407.577 867.057,-403.731 860.609,-403.731C858.109,-403.731 855.289,-404.309 852.263,-405.901C846.688,-408.832 844.049,-413.653 842.799,-417.634C841.792,-420.839 839.868,-423.672 837.38,-425.93C831.936,-430.871 828.326,-436.869 824.587,-443.145C823.375,-445.178 822.14,-447.258 820.808,-449.351C815.023,-458.417 799.418,-461.991 799.263,-462.024L799.678,-463.351ZM-151.021,687.826C-192.574,675.162 -215.352,657.269 -216.019,657.01L-214.779,654.942C-213.071,655.605 -47.182,717.746 117.642,723.457C119.327,723.515 121.539,722.546 122.009,719.433C123.318,710.758 124.718,704.357 124.718,704.357L125.601,704.273C127.673,714.638 136.357,757.183 140.5,763.399C145.225,770.485 199.554,772.847 206.64,763.399C212.905,755.045 221.925,706.15 223.935,694.908L224.784,694.827C224.784,694.827 226.033,699.411 226.946,710.447C227.025,711.399 227.676,712.212 228.611,712.016C352.601,686.131 481.181,615.034 577.562,518.378C584.329,511.592 590.959,504.715 597.353,497.695L598.754,499.155C595.819,503.795 592.721,508.369 589.483,512.883C583.67,520.982 577.341,528.847 570.658,536.51C553.166,556.564 532.96,575.079 511.141,591.665C507.375,594.528 510.26,600.429 514.835,599.223C587.596,580.04 623.843,581.95 666.57,586.491C682.986,588.238 699.96,590.045 719.167,590.537C804.903,592.724 912.859,540.195 935.696,384.917C960.639,215.277 854.891,83.59 808.265,34.847C800.973,27.221 792.671,19.023 783.884,10.344C731.867,-41.031 660.626,-111.388 660.626,-199.017C660.626,-299.676 703.625,-356.731 740.445,-375.005L740.441,-375.005C740.354,-375.001 762.625,-391.279 788.235,-371.343C811.954,-352.875 856.063,-323.63 869.998,-315.439C878.169,-310.633 891.827,-299.13 902.075,-290.113C905.025,-287.516 909.625,-289.919 909.136,-293.818C908.738,-296.999 908.176,-300.595 907.39,-304.603C904.163,-321.041 879.202,-368.853 868.533,-387.176C866.764,-390.212 865.735,-396.93 871.845,-400.783C873.511,-401.832 875.404,-403.036 877.088,-404.444C880.619,-407.392 885.633,-408.04 888.348,-405.729C913.545,-384.274 943.359,-385.444 955.56,-387.092C957.536,-387.358 959.014,-388.964 959.15,-390.952C959.857,-401.314 960.523,-423.755 954.989,-441.554C946.518,-468.799 901.356,-544.141 830.827,-545.897C789.777,-546.907 753.156,-536.576 721.707,-515.169C674.29,-482.882 548.328,-397.118 550.632,-219.69C552.79,-53.475 655.818,42.21 711.17,93.618C721.599,103.304 729.837,110.956 735.417,117.276C795.299,185.151 825.661,253.005 825.661,318.954C825.661,363.77 805.856,399.462 772.688,414.431C763.323,418.657 753.63,420.734 744.238,420.734C729.827,420.734 716.117,415.848 705.341,406.338C692.803,395.276 679.667,366.856 664.457,333.95C652.331,307.718 638.658,278.145 623.112,252.936C621.282,249.969 616.719,252.191 617.924,255.462C626.04,277.483 620.145,293.769 620.145,294.126L619.373,293.745C619.369,292.985 606.777,208.561 531.744,168.398C443.622,121.23 184.187,106.914 -23.438,300.842C-232.081,495.73 -385.609,694.714 -448.311,850.776C-449.801,854.485 -445.765,857.998 -442.264,856.068C-399.943,832.744 -295.691,772.678 -252.971,724.623L-243.098,713.511L-247.075,727.834C-247.381,728.928 -252.116,745.842 -258.574,761.598C-260.104,765.332 -256.123,768.92 -252.598,766.957C-227.015,752.717 -185.615,729.09 -149.239,695.13C-146.805,692.857 -147.836,688.797 -151.021,687.826" style="fill:rgb(241,82,107);fill-rule:nonzero;"/>
                            </g>
                        </g>
                        <g transform="matrix(1,0,0,1,2670.0586,1007.7458)">
                            <g id="BEAK-1" serif:id="BEAK 1">
                                <path d="M0,50.596C-5.933,31.512 -50.394,-33.97 -64.163,-53.999C-65.799,-56.377 -68.566,-57.607 -71.427,-57.216C-84.426,-55.434 -113.411,-54.414 -139.492,-74.244C-142.091,-76.219 -145.767,-76.186 -148.37,-74.219C-148.459,-74.153 -148.548,-74.087 -148.638,-74.02C-151.796,-71.685 -152.818,-67.468 -150.883,-64.051C-139,-43.075 -116.525,0.609 -113.306,17C-110.522,31.189 -110.387,40.569 -110.569,45.018C-110.622,46.282 -110.355,47.434 -109.8,48.571C-101.067,66.393 -92.977,98.651 -87.052,126.815C-80.807,126.614 -69.761,125.487 -62.058,120.382C-51.986,113.709 -44.068,77.025 -48.317,51.664C-54.545,41.286 -61.648,33.458 -66.467,28.153L-67.806,26.672C-72.868,21.062 -78.453,13.575 -84.919,8.17C-91.784,2.426 -97.076,-2.532 -99.816,-6.345C-103.588,-11.594 -113.281,-21.482 -117.006,-25.062L-116.631,-25.571C-116.031,-25.2 -101.935,-16.44 -96.597,-9.01C-94.365,-5.904 -88.473,-0.977 -82.233,4.242C-75.594,9.796 -68.072,16.088 -62.691,22.055L-61.365,23.519C-51.618,34.248 -33.094,54.758 -29.076,85.608C-22.164,86.866 -5.521,89.471 2.89,87.172C3.91,71.353 2.578,58.882 0,50.596" style="fill:rgb(229,94,33);fill-rule:nonzero;"/>
                            </g>
                        </g>
                        <g id="BEAK-2" serif:id="BEAK 2">
                            <g transform="matrix(1,0,0,1,2608.001,1184.1454)">
                                <path d="M0,-56.018C-7.703,-50.913 -18.749,-49.786 -24.994,-49.585C-19.177,-21.929 -15.448,1.781 -15.267,3.979C-15.034,6.809 -15.771,15.205 -16.922,27.691C-17.618,35.263 -18.342,43.094 -18.318,45.459C-18.278,49.727 -12.429,64.931 -10.289,68.717C-9.708,68.671 -8.481,68.432 -6.456,67.64C9.393,48.464 23.53,-26.76 26.702,-72.437C28.208,-94.079 21.689,-111.486 13.74,-124.735C17.989,-99.375 10.071,-62.691 0,-56.018" style="fill-rule:nonzero;"/>
                            </g>
                            <g transform="matrix(1,0,0,1,2640.9824,1245.2575)">
                                <path d="M0,-151.904C0.77,-145.995 1.064,-139.747 0.6,-133.071C-1.7,-100 -12.194,-31.67 -27.449,0C-26.583,-0.557 -25.751,-1.082 -24.798,-1.724C-11.778,-10.497 -7.094,-21.465 12.903,-71.826C25.146,-102.663 30.617,-129.433 31.966,-150.34C23.555,-148.041 6.912,-150.646 0,-151.904" style="fill-rule:nonzero;"/>
                            </g>
                        </g>
                        <g transform="matrix(1,0,0,1,2498.0693,907.6858)">
                            <g id="EYE">
                                <path d="M0,10.99C4.277,13.235 7.831,12.218 9.813,11.202C8.255,6.494 5.546,0.678 2.975,-0.873C0.687,-2.245 -3.77,-0.829 -6.744,0.581C-6.312,3.377 -4.866,8.429 0,10.99" style="fill:rgb(94,158,163);fill-rule:nonzero;"/>
                            </g>
                        </g>
                        <g id="TYPE">
                        </g>
                    </g>
                </g>
            </g>
        </g>
    </g>
</svg>
